<svg xmlns="http://www.w3.org/2000/svg" width="560" height="220"><path fill="#F8F7F4" d="M560 205a15 15 0 01-15 15H15a15 15 0 01-15-15V15A15 15 0 0115 0h530a15 15 0 0115 15v190z"/><path d="M545 0H20.7L0 20.7V205a15 15 0 0015 15h530a15 15 0 0015-15V15a15 15 0 00-15-15zM10.2.8a15.1 15.1 0 00-9.4 9.4L10.2.8z" fill="#F8F7F4"/><path fill="#92CDFF" d="M20.7 0H15c-1.7 0-3.2.3-4.7.8L.8 10.3A14.8 14.8 0 000 15v5.7L20.7 0z"/><path fill="#FE9E90" d="M0 40.1L40.1 0h-9.7L0 30.4z"/><path fill="#92CDFF" d="M0 59.5L59.5 0h-9.7L0 49.8z"/><path fill="#FE9E90" d="M0 78.9L78.9 0h-9.7L0 69.2z"/><path fill="#92CDFF" d="M0 98.3L98.3 0h-9.7L0 88.6z"/><path fill="#FE9E90" d="M0 117.7L117.7 0H108L0 108z"/><path fill="#92CDFF" d="M0 137L137 0h-9.6L0 127.4z"/><path fill="#FE9E90" d="M0 156.4L156.4 0h-9.7L0 146.7z"/><path fill="#92CDFF" d="M0 175.8L175.8 0h-9.7L0 166.1z"/><path fill="#FE9E90" d="M0 195.2L195.2 0h-9.7L0 185.5z"/><path fill="#92CDFF" d="M205 0L0 205c0 2.7.8 5.3 2 7.5L214.7 0h-9.7z"/><path fill="#FE9E90" d="M14 220L234 0h-9.7L6.8 217.5A14.9 14.9 0 0014 220z"/><path fill="#92CDFF" d="M33.4 220l220-220h-9.7l-220 220z"/><path fill="#FE9E90" d="M52.8 220l220-220H263L43 220z"/><path fill="#92CDFF" d="M72.1 220l220-220h-9.6l-220 220z"/><path fill="#FE9E90" d="M91.5 220l220-220h-9.7l-220 220z"/><path fill="#92CDFF" d="M111 220L331 0h-9.8l-220 220z"/><path fill="#FE9E90" d="M130.3 220l220-220h-9.7l-220 220z"/><path fill="#92CDFF" d="M149.7 220l220-220H360L140 220z"/><path fill="#FE9E90" d="M169 220L389 0h-9.6l-220 220z"/><path fill="#92CDFF" d="M188.5 220l220-220h-9.7l-220 220z"/><path fill="#FE9E90" d="M207.9 220l220-220h-9.7l-220 220z"/><path fill="#92CDFF" d="M227.2 220l220-220h-9.6l-220 220z"/><path fill="#FE9E90" d="M246.6 220l220-220H457L237 220z"/><path fill="#92CDFF" d="M266 220L486 0h-9.7l-220 220z"/><path fill="#FE9E90" d="M285.4 220l220-220h-9.7l-220 220z"/><path fill="#92CDFF" d="M304.8 220l220-220H515l-220 220z"/><path fill="#FE9E90" d="M324.2 220l220-220h-9.7l-220 220z"/><path fill="#92CDFF" d="M343.6 220L557.2 6.3a15.2 15.2 0 00-5.1-4.5L333.9 220h9.7z"/><path fill="#FE9E90" d="M363 220L560 23v-8l-.1-1.6L353.3 220h9.7z"/><path fill="#92CDFF" d="M382.3 220L560 42.3v-9.7L372.6 220z"/><path fill="#FE9E90" d="M401.7 220L560 61.7V52L392 220z"/><path fill="#92CDFF" d="M421.1 220L560 81.1v-9.7L411.4 220z"/><path fill="#FE9E90" d="M440.5 220L560 100.5v-9.7L430.8 220z"/><path fill="#92CDFF" d="M459.9 220L560 119.9v-9.7L450.2 220z"/><path fill="#FE9E90" d="M479.3 220l80.7-80.7v-9.7L469.6 220z"/><path fill="#92CDFF" d="M498.7 220l61.3-61.3V149l-71 71z"/><path fill="#FE9E90" d="M518 220l42-42v-9.6L508.4 220z"/><path fill="#92CDFF" d="M537.4 220l22.6-22.6v-9.7L527.7 220z"/><path fill="#FE9E90" d="M559.8 207.3l-12.5 12.5a15 15 0 0012.5-12.5z"/></svg>