<svg xmlns="http://www.w3.org/2000/svg" width="49" height="49"><g fill="#323232"><path d="M24.5 0a24.5 24.5 0 100 49 24.5 24.5 0 000-49zm0 47C12.1 47 2 36.9 2 24.5S12.1 2 24.5 2 47 12.1 47 24.5 36.9 47 24.5 47z"/><path d="M34.81 19.34c.86-1.7 1.88-4.99.43-9.48a1 1 0 00-1.82-.18c-1.27 2.27-4.04 5.92-6.05 6.1l-.08.02a16.24 16.24 0 00-2.79-.3c-.1 0-1.31 0-2.8.3l-.07-.03c-2-.17-4.78-3.83-6.05-6.1a1 1 0 10-1.82.19c-1.45 4.5-.43 7.77.43 9.48-1.75.22-3.96.78-4.76 2.19-.39.68-.38 1.46.03 2.2.51.94 1.4 1.24 2.33 1.24.82 0 1.67-.23 2.35-.48 0 .54.02 1.08.13 1.62.29 1.5 1.13 3.63 1.75 5.2.18.47.4 1 .5 1.32-.23.61-.67 1.8-.76 2.48-.11.8.11 2.15 1.12 3.3 1.44 1.67 4 2.5 7.62 2.5 3.61 0 6.17-.83 7.62-2.5 1-1.15 1.23-2.5 1.12-3.3-.1-.67-.53-1.87-.77-2.48l.51-1.32c.62-1.57 1.46-3.7 1.75-5.2a8.48 8.48 0 00.14-1.62 7.1 7.1 0 002.34.48c.93 0 1.82-.3 2.33-1.24.4-.74.41-1.52.03-2.2-.8-1.41-3.02-1.97-4.76-2.19zm-.95-6.63a9.47 9.47 0 01-1.03 6.11 9.9 9.9 0 00-.8-.87 6.92 6.92 0 00-1.9-1.26 16.92 16.92 0 003.73-3.98zm-18.72 0c.92 1.3 2.23 2.92 3.7 3.97a6.55 6.55 0 00-2.66 2.16 9.51 9.51 0 01-1.04-6.13zm-3.93 10.06c-.09-.16-.06-.21-.04-.25.22-.4 1.39-1 3.6-1.23a9.2 9.2 0 00-.3.87c-1.26.68-3 1.1-3.26.61zm21.56 2.96c-.25 1.31-1.06 3.35-1.65 4.84-.4 1.01-.6 1.56-.68 1.88l-.07.3.12.29c.28.7.7 1.9.77 2.35 0 0 .1.86-.65 1.72-.72.82-2.36 1.8-6.11 1.8-3.75 0-5.4-.98-6.11-1.8-.75-.86-.65-1.71-.65-1.72.06-.44.49-1.64.77-2.35l.12-.29-.07-.3c-.07-.33-.28-.87-.68-1.88-.59-1.49-1.4-3.53-1.65-4.84a7.21 7.21 0 012.15-6.36c1.51-1.53 4.93-1.87 6.12-1.87 1.17 0 4.54.34 6.14 1.89a7.1 7.1 0 012.13 6.34zm5.02-2.96c-.26.48-1.97.07-3.24-.6a9.44 9.44 0 00-.3-.88c2.2.23 3.36.84 3.58 1.23.02.04.05.09-.04.25z"/></g></svg>