<svg xmlns="http://www.w3.org/2000/svg" width="61" height="61"><circle fill="#FFF" cx="30.5" cy="30.5" r="30.5"/><path d="M19.98 18.27c-.91 2.68-1.71 5.38-2.47 8.1a50 50 0 01-.96-8.72c0-.43-1.93-.11-1.93.52.06 4.24.8 8.35 1.75 12.43-1.2 4.58-2.31 9.18-3.58 13.77-.1.4 1.77.14 1.9-.34.9-3.27 1.73-6.54 2.56-9.8.8 3.2 1.65 6.4 2.27 9.65.1.51 2.05.05 1.94-.52-.87-4.46-2.12-8.83-3.15-13.24 1.07-4.09 2.2-8.16 3.58-12.2.12-.35-1.74-.14-1.9.35zm14.42.53c.04-1.05-1.92-.8-1.97.13v.23c-.05.07-.09.13-.1.2-1.01 4.47-2.62 8.74-4.06 13.07-.65 1.93-1.14 3.9-1.67 5.85-.14-6.62-.13-13.23-.16-19.87 0-1.04-1.97-.77-1.97.14.04 8.33.02 16.64.3 24.97a.64.64 0 00-.03.3l.07.44c.12.86 1.96.48 1.94-.31l.02-.03c1.64-4.17 2.48-8.6 3.9-12.84l1.56-4.66c-.07 5.98.06 11.97.2 17.96.04 1.01 1.59.77 1.92.06l.05-.12c.12-.23.1-.42-.01-.55-.21-8.34-.39-16.64 0-24.97zm12.92-1.14c-3.16.38-6.31.23-9.48.05-.49-.03-2.24.85-1.22.9 1.1.07 2.18.12 3.27.15-.1.08-.16.17-.16.27.3 8.4-1.05 17.23.2 25.56.06.42 2 0 1.93-.52-1.23-8.23.07-16.95-.19-25.27 1.78.01 3.55-.05 5.33-.26.86-.1 1.67-1.04.32-.88z" fill="#231F20"/></svg>