<svg xmlns="http://www.w3.org/2000/svg" width="49" height="49"><g fill="#323232"><path d="M24.5 0a24.5 24.5 0 100 49 24.5 24.5 0 000-49zm0 47C12.1 47 2 36.9 2 24.5S12.1 2 24.5 2 47 12.1 47 24.5 36.9 47 24.5 47z"/><path d="M24.5 7.63a8.5 8.5 0 00-8.44 7.5H16v16.91h17V15.13h-.06a8.5 8.5 0 00-8.44-7.5zM31 30.04H18V20.8c.28.33.7.63 1.54.63 1.3 0 2.13-.72 2.13-1.63v-.87a.85.85 0 111.7 0v3.33s-.03 1.83 2.13 1.83c2.1 0 2.13-1.75 2.13-1.75v-2.25a1.34 1.34 0 012.68 0l.02.09s.04.6.67.89v8.98zm-8 10.09a1.5 1.5 0 103 0V33h-3v7.13z"/></g></svg>