<svg width="7" height="12" viewBox="0 0 7 12" fill="none" xmlns="http://www.w3.org/2000/svg">
<path d="M0.15889 6.34125L6.06761 11.8512C6.1703 11.9465 6.30937 12 6.45436 12C6.59934 12 6.73841 11.9465 6.84111 11.8512C6.89146 11.8048 6.93142 11.7495 6.95869 11.6885C6.98596 11.6276 7 11.5623 7 11.4962C7 11.4302 6.98596 11.3649 6.95869 11.304C6.93142 11.243 6.89146 11.1877 6.84111 11.1412L1.3084 6.00125L6.84111 0.831247C6.89146 0.784766 6.93142 0.729465 6.95869 0.668535C6.98596 0.607606 7 0.542253 7 0.476248C7 0.410242 6.98596 0.344889 6.95869 0.283959C6.93142 0.22303 6.89146 0.167728 6.84111 0.121247C6.73357 0.0364304 6.59506 -0.00654793 6.45436 0.00124741C6.38391 0.000448227 6.31406 0.013381 6.2493 0.0392141C6.18454 0.0650473 6.12631 0.103209 6.07835 0.151247L0.15889 5.63125C0.108543 5.67773 0.0685816 5.73303 0.0413108 5.79396C0.01404 5.85489 0 5.92024 0 5.98625C0 6.05225 0.01404 6.11761 0.0413108 6.17854C0.0685816 6.23947 0.108543 6.29477 0.15889 6.34125Z" fill="white" fill-opacity="0.2"/>
</svg>
