<svg data-name="Layer 1" xmlns="http://www.w3.org/2000/svg" viewBox="0 0 108.08 36.85"><path d="M44.61 26.86a2 2 0 00.55-.1v1.33a3.25 3.25 0 01-1.18.21 1.67 1.67 0 01-1.67-1 4.84 4.84 0 01-3.14 1.08c-1.51 0-2.91-.83-2.91-2.55 0-2.13 2-2.79 3.71-2.79a11.08 11.08 0 012.17.25v-.3c0-1-.76-1.77-2.19-1.77a7.42 7.42 0 00-3 .64v-1.7a10.21 10.21 0 013.19-.55c2.36 0 3.81 1.12 3.81 3.65v3a.54.54 0 00.49.59h.17zm-6.44-1.13a1.35 1.35 0 001.46 1.25h.11a3.39 3.39 0 002.41-1v-1.42a9.72 9.72 0 00-1.81-.21c-1 0-2.16.33-2.16 1.38zm12.36-6.11a5 5 0 012.57.64v1.72a4.08 4.08 0 00-2.3-.7 2.75 2.75 0 100 5.49 5 5 0 002.43-.64v1.71a6.27 6.27 0 01-2.76.57A4.21 4.21 0 0146 24.49v-.41a4.32 4.32 0 014.18-4.46h.38zm12.17 7.24a2 2 0 00.55-.1v1.33a3.25 3.25 0 01-1.18.21 1.67 1.67 0 01-1.67-1 4.84 4.84 0 01-3.14 1.08c-1.51 0-2.91-.83-2.91-2.55 0-2.13 2-2.79 3.71-2.79a11.08 11.08 0 012.17.25v-.3c0-1-.76-1.77-2.19-1.77a7.42 7.42 0 00-3 .64v-1.7a10.21 10.21 0 013.19-.55c2.36 0 3.81 1.12 3.81 3.65v3a.54.54 0 00.49.59h.17zm-6.44-1.13a1.35 1.35 0 001.47 1.25h.11a3.39 3.39 0 002.41-1v-1.42a9.72 9.72 0 00-1.81-.21c-1.06 0-2.16.33-2.16 1.38zM73 15.98v12.2h-1.65v-1.32a3.88 3.88 0 01-3.19 1.54 4.4 4.4 0 010-8.78 3.81 3.81 0 013 1.3v-4.94H73zm-4.53 5.22a2.76 2.76 0 100 5.52 2.86 2.86 0 002.68-1.74v-2a2.91 2.91 0 00-2.66-1.73zM79 19.62c3.31 0 4.46 2.68 3.92 5.09H76.7c.21 1.5 1.67 2.11 3.19 2.11a6.11 6.11 0 002.64-.59v1.6a7.14 7.14 0 01-3 .57c-2.53 0-4.75-1.42-4.75-4.42a4.18 4.18 0 014-4.39H79zm.09 1.54a2.28 2.28 0 00-2.44 2.1v.06h4.65a2 2 0 00-2.17-2.16zm5.73 7v-8.31h1.65v1a3.81 3.81 0 012.78-1.27 2.86 2.86 0 012.64 1.4 4.12 4.12 0 012.91-1.33 3.06 3.06 0 013.2 3.33v5.2h-1.9v-5.15a1.59 1.59 0 00-1.42-1.75h-.26a2.8 2.8 0 00-2.07 1.12v5.78h-1.9v-5.15A1.59 1.59 0 0089 21.29h-.2a3 3 0 00-2.21 1.29v5.63h-1.73zm21.31-8.33h1.9l-3.91 9.46c-.9 2.17-2.09 2.86-3.35 2.86a4.76 4.76 0 01-1.1-.14v-1.57a2.86 2.86 0 00.85.12c.9 0 1.58-.64 2.07-1.9l.17-.42-4-8.4h2l2.86 6.29zM38.73 1.44V6.2a3.81 3.81 0 012.7-1.14 3.25 3.25 0 013.44 3.4v5.15H43V8.7a1.81 1.81 0 00-1.61-2h-.3a2.93 2.93 0 00-2.32 1.39v5.52h-1.9V1.44h1.9zm11.21.85v3h3v1.6h-3v3.81c0 1.1.5 1.46 1.58 1.46a4.49 4.49 0 001.69-.33v1.6a6.8 6.8 0 01-2.21.35 2.55 2.55 0 01-2.86-2.74V6.87h-1.56V5.24h1.5V2.72zm5.4 11.31V5.26H57v1a3.81 3.81 0 012.77-1.28 2.86 2.86 0 012.6 1.33 4.12 4.12 0 012.91-1.33 3.06 3.06 0 013.16 3.4v5.21h-1.9V8.44a1.59 1.59 0 00-1.42-1.75h-.23a2.8 2.8 0 00-2.07 1.12v5.78h-1.9V8.44a1.59 1.59 0 00-1.42-1.75h-.23a3 3 0 00-2.21 1.29v5.63h-1.72zM71.17 1.43H73v12.15h-1.83V1.43zM14.71-.02h-.16L0 1.52v26.67l14.55 8.66 14.55-8.66V1.52zm12.5 27.1l-12.66 7.54L1.9 27.1V16.16l12.59 7.5v1.32l-8.63-5.1v1.31l8.68 5.21v1.39l-8.67-5.16v1.35l8.68 5.21 8.75-5.24v-5.66l3.9-2.31V27.1zm0-12.53l-3.48 2-1.6 1-7.62-4.57v1.31L21 18.21l-.14.09-1 .54-5.37-3.2v1.34l4.24 2.52-1 .67-3.2-1.9v1.31l2.1 1.24-2.13 1.26L2 14.63l12.51-7.54zm0-1.32L14.49 5.74 1.91 13.23v-10L14.56 1.9l12.65 1.33v10z" fill="#fff"/></svg>