<svg xmlns="http://www.w3.org/2000/svg" width="154" height="64"><g fill="#FFF"><path d="M59.3 42.76c-.84-.25-2.16.37-2.16.37s-3.03 2.51-17.84-.38c-10.9-2.13-16.58-1.92-16.58-1.92s1.83-12.5 1.33-16c0 0 0-.91-1.08-.91s-1.75.41-1.75 1 .16 4.41-.25 7.08c0 0-1.42 4.25-6.17 3.92s-5.75-3.75-6.17-6.09-.66-8.83.59-11.5c0 0 7.16.25 11.66-3.58s4.25-7.17 2.09-8.58S15.88 5 12.05 8.5s-5.08 7-5.08 7-5.63-1.2-4.34-7.08C3.98 2.28 12.4 3 12.4 3c1.75.33 1.83.5 2.4-.08s1-2.09-1.74-2.17S2.05 2.02.47 7.5c-1.69 5.83 1.43 10 5.62 10.64 0 0-2.29 10.11.54 15.11s6.94 4.92 8.6 4.92 4.57-.92 5.4-2.25c0 0-.39 3.58-.72 4.88 0 0-6.94-.1-9.11 1.03-3.69 1.92-2.92 6.48-1.5 8.1 1.2 1.39 4.81 2.13 7.42.9 2.7-1.27 4.86-3.74 5.55-7.7 0 0 6.36-.46 12.53 1.37s14.76 3.56 17.34 3.56 8.05-.74 8.33-2.9c.18-1.43-.35-2.16-1.18-2.4zM15.85 9.33s3.28-2.5 4.85-.94c0 0 1.25 1.28.09 2.81-.66.87-2.4 3.6-10.66 4.94 0 0 2.6-4.56 5.72-6.81zm.27 38.9s-4.53 2.47-5.05-.87c-.33-2.16.89-3.18 1.69-3.57s1.87-.88 6.58-.71c0 0 0 3.33-3.22 5.15z"/><path d="M73.58 24.48v6.77c-.01.03-.03.07-.03.11a5.68 5.68 0 01-.86 2.54 5.56 5.56 0 01-1.18 1.46c-.53.47-.88-.56-1.08-.98-1.39-2.92-.72-6.82-.18-9.87.25-1.45-2.7-1.07-2.94.23-.33 1.89-.87 5.12-.55 7.9-.58.1-1.16.37-1.34.74-.5 1.09-2 4.7-3.83 3.26-1.32-1.05-1.46-3.74-1.6-5.27-.2-2.11.15-4.27.82-6.27-.06.18 1.14-2.82 1.67-1.7.32.7.03 2.64-.61 3.12-1.57 1.19.87 1.67 1.82.96 1.8-1.36 3.05-5.7-.07-6.23-3.47-.58-5.44 2.92-6.17 5.7a18 18 0 00-.5 4.88c-.48.83-2.1 3.53-3.05 4.03-1.12.58-1.1-.23-1.06-.75s.54-5.15.82-8.27c.17-2.02-.07-2.78-.5-3.65s-4-2.83-7.15.83a11.9 11.9 0 00-3.08 7.06c-.21.42-.44.87-.71 1.36-1.5 2.75-3.38 3.9-4.06 2-.6-1.67-.9-3.7-.75-6.19 0-.09 3.5-5 5.06-11.75s1.25-10.06.44-10.62-4.25-1.94-6.31 6.25c-1.53 6.04-2.14 12.5-1.57 17.87a41.6 41.6 0 01-1.23 2.44c-1.5 2.75-3.38 3.9-4.06 2-.6-1.67-.9-3.7-.75-6.19 0-.09 3.5-5 5.06-11.75s1.25-10.06.44-10.62-4.25-1.94-6.31 6.25-2.47 17.12-.5 23.12c0 0 1.08 3.38 3.1 3.13 1.67-.21 3.66-1.85 4.83-4.91.14.61.3 1.21.49 1.78 0 0 1.08 3.38 3.1 3.13 1.38-.17 2.96-1.32 4.14-3.43.71 1.84 2.24 3.34 4.21 2.99 2.67-.48 3.22-1.93 3.22-1.93s-.05 2.38 1.66 2.38c1.52 0 2.73-.9 3.94-3.16l.77-1.48c.35 2.14 1.24 4.05 3.02 4.83 2.97 1.3 5.62-1.17 7.16-3.61a4.29 4.29 0 002.46 2.62c1.34.5 2.66 0 3.78-.93l-.03 3.52c-.58 0-1.24.14-1.55.41a11.73 11.73 0 00-4.2 10.52c.24 2.48 2.58 3.6 4.73 2.67 3.1-1.35 3.57-6.03 3.83-8.84.63-6.83.14-13.94.14-20.8 0-1.28-2.9-.7-2.9.34zm-43.33-11.2c.69-2.65 1.33-3.72 1.96-3.72s.93.72.46 3-1.98 8.63-4.09 12.75c0 0 .98-9.37 1.67-12.03zm8.42 0c.69-2.65 1.33-3.72 1.95-3.72s.94.72.47 3-1.98 8.63-4.1 12.75c0 0 1-9.37 1.68-12.03zm12.86 12.43c-.08.58-.46 4.29-.96 6.29s-.95 2.78-2.58 3.44c-1.7.69-2.44-1.42-2.44-1.42-1.15-3.2.4-6.04 1.67-7.92s2.57-2.1 3.3-1.95a1.36 1.36 0 011 1.56zM73.5 43.76c-.04 2.69-.38 5.38-1.58 7.81-.7.15-1.03-.11-1.24-1.23a10.73 10.73 0 01.05-3.25c.24-2.03 1.38-3.74 2.79-5.16l-.02 1.83zm18.8-22.11c-2.54-1.23-4.81-3.3-5.71-6C85.3 11.82 89.5 9 92.86 9.18c3.49.18 5.14 3.62 4.97 6.7-.06 1.1-.75 3.56-2.1 2.28-.95-.9-1.37-2.37-1.56-3.63-.2-1.21-3.1-.5-2.9.78.58 3.65 4.53 7.68 7.9 3.86 3.01-3.42 1.65-9.46-2.58-11.23a10.23 10.23 0 00-12.53 4.32c-2.73 4.85 2.75 9.6 6.63 11.32 6.23 3.34 6.46 14.06-1.82 14.13a8.35 8.35 0 01-7.69-5.61c-.57-1.69-.28-7.55 2.02-8 1.8-.36 1.3-2.04-.46-1.7-3.71.73-5.08 5.52-4.72 8.86.58 5.34 5.58 8.34 10.63 8.3 4.68-.04 8.66-2.93 9.63-7.55.93-4.48-1.92-8.77-5.98-10.36z"/><path d="M110.88 37.53c-2.85-1.55-1.22-7.56-.79-9.87.28-1.5 1.55-3.8-.5-4.3-2.38-.58-5.22 1.69-7.27 3.86.01-2.5.17-5 .55-7.48a15.63 15.63 0 007.18-7.4c1.3-2.6 1.95-7.96-2.46-6.42-3.98 1.4-5.37 6.02-6.62 9.7a29.26 29.26 0 00-1.09 4.37c-.4.16-.8.31-1.22.44-1.66.51-1.44 1.4.24.89a32 32 0 00.8-.26c-.78 5.6-.25 11.49.26 17.02.05.54 2.97 0 2.9-.78-.23-2.47-.42-4.92-.5-7.36.28-.1.52-.24.63-.4a22.56 22.56 0 014-3.92l.46-.34c.67-.53.8-.55.38-.04-.06.91-.46 1.93-.62 2.83-.55 3-2.13 8.89 1.34 10.78.75.4 3.43-.72 2.33-1.32zm-6.48-24.1c.3-.9.71-1.77 1.09-2.64.47-1.08 1.73-4.76 2.64-3 .73 1.4-.42 3.72-.93 5.07a11.86 11.86 0 01-4.05 5.3c.3-1.59.71-3.16 1.24-4.73z"/><path d="M121.64 30.53c0-3.3-.38-7.5-4.3-7.87-4.32-.39-6.01 4.13-6.07 7.5 0 .27.13.45.35.56 0 3.15.76 7.26 4.5 7.2 4.19-.07 5.51-3.71 5.51-7.4zm-5 5.47c-2.44-.97-2.22-5.2-2.06-7.24a.54.54 0 00-.24-.52c.3-2.02 1.08-5.03 2.86-3.5 1.42 1.2 1.45 4.14 1.52 5.83.06 1.14-.1 6.22-2.08 5.43zm36.5 12.58c-1.13-2.89-3.6-4-6.3-4.13a12.03 12.03 0 00-1.13-2.07c-3.91-5.8-13.19-5.02-19.48-1.95l-.13-2.73c2.54.12 5-.85 6.5-3 1.68-2.4 1.44-6.63.78-9.31-.62-2.53-3.08-2.08-4.93-1.24a7.7 7.7 0 00-1.86 1.26l.16-2.01c.11-1.54-2.84-1.15-2.94.2-.46 6.2-.3 12.37-.44 18.54-4.27 3.87-5.35 7.5-5.4 12.06-.01 2.27 1.94 3.96 3.99 2.39 2.9-2.22 3.77-6.63 4.17-9.98.18-1.5.2-3.01.16-4.53 4.49-2.94 10.63-3.15 15.2-.1.94.62 1.72 1.6 2.27 2.7-1.7.3-3.31.85-4.62 1.48-1.7.82-4.25 2.76-4.13 4.93.1 1.7 1.03 2.64 2.29 2.98.07.03.17.06.3.08 6.13 1 10.7-2.62 9.82-7.73 2.99 1.62 4.11 5.4 3.05 8.66-2.4 7.3-11.59 8.93-16.95 4.05-.58-.52-3.19.58-2.73 1 7.78 7.07 27.06.52 22.34-11.55zm-29.95-1.77a15.5 15.5 0 01-1.14 5.14 22.06 22.06 0 01-.8 1.6s-.27.06-.32-.72c.02-2.86.8-5.58 2.34-7.9-.02.63-.04 1.25-.08 1.87zm3.13-17.86a.77.77 0 00.15-.18c.51-.91 1.2-1.72 1.9-2.5a7.77 7.77 0 011.8-1.54c.33.16.66.99.78 2.13.3 2.77.44 10.1-3.94 9.4-.21-.03-.57.05-.95.18v-.04c-.06-2.48.08-4.97.26-7.45zm13.08 23.74h-.06c-1.68-.4-1.5-2-1.28-3.09.49-2.52 3.57-3.88 6.11-3.96 1.29 3.57.3 7.87-4.77 7.05z"/></g></svg>