<svg xmlns="http://www.w3.org/2000/svg" width="80" height="140"><path fill="#E84D37" d="M40 7.1a28.29 28.29 0 0124.55 42.33c4.5.64 7.97 4.5 7.97 9.19a9.3 9.3 0 01-9.3 9.29 9.29 9.29 0 01-9.18-7.97c-.35.2-.7.4-1.07.58a13.15 13.15 0 01-25.94 0 29.75 29.75 0 01-1.07-.58 9.29 9.29 0 11-10.51-10.51 28.15 28.15 0 01-3.74-14.04A28.29 28.29 0 0140 7.1m0-7a35.33 35.33 0 00-33.62 46 16.32 16.32 0 00-5.9 12.52c0 8.98 7.3 16.29 16.3 16.29 3.15 0 6.13-.93 8.66-2.53 3.68 3.85 8.86 6.19 14.56 6.19s10.88-2.34 14.56-6.19a16.18 16.18 0 008.67 2.53c8.98 0 16.3-7.31 16.3-16.3 0-4.96-2.3-9.5-5.91-12.51a35.32 35.32 0 001.67-10.71A35.33 35.33 0 0040 .1z"/><path fill="#E84D37" d="M63.23 78.9c-2.84 0-5.56-.59-8.04-1.67-.37.3-.76.57-1.15.85l.53.52-3.9 3.9-1.68-1.67c-.68.27-1.38.52-2.1.73l2.36 2.35-3.9 3.9-3.9-3.9 1.56-1.55c-.99.12-1.99.2-3 .2-1 0-1.97-.07-2.93-.19l1.55 1.54-3.9 3.9-3.9-3.9 2.34-2.34a23.6 23.6 0 01-2.1-.72l-1.65 1.65-3.9-3.9.49-.49c-.4-.28-.81-.57-1.2-.88a20.06 20.06 0 01-8.04 1.68l-.6-.03a3.47 3.47 0 00.16 1.62l20.38 57.12.08.2.1.2c.06.14.14.27.23.4l.09.13c.12.16.26.32.4.46l.11.08c.13.1.25.2.4.3l.17.1c.14.08.28.14.43.2l.1.05.06.02.4.1.16.04a3.51 3.51 0 001.12 0c.06 0 .12-.03.17-.04l.39-.1c.02 0 .04 0 .06-.02l.1-.05c.15-.06.3-.12.43-.2a3.34 3.34 0 00.18-.1l.4-.3c.02-.03.06-.05.1-.08.15-.14.28-.3.4-.46.04-.04.06-.09.09-.13a3.51 3.51 0 00.33-.6l.09-.2L63.67 80.5a3.47 3.47 0 00.16-1.62l-.6.03zM49.25 94.55l-3.9 3.9-3.9-3.9 3.9-3.9 3.9 3.9zm-13.1 5.31l3.9-3.9 3.89 3.9-3.9 3.9-3.9-3.9zm7.79 10.63l-3.9 3.9-3.9-3.9 3.9-3.9 3.9 3.9zm-3.9-25.15l3.9 3.9-3.9 3.9-3.9-3.9 3.9-3.9zm-1.41 9.21l-3.9 3.9-3.9-3.9 3.9-3.9 3.9 3.9zM23.73 80.4l.37-.38 3.9 3.9-2.23 2.22-2.05-5.74zm2.79 7.83l2.9-2.9 3.9 3.9-3.9 3.9-1.8-1.8-1.1-3.1zm2.8 7.83l.1-.1 3.9 3.9-1.96 1.95-2.05-5.75zm4.2 11.8l-1.42-3.97 2.63-2.62 3.9 3.9-3.9 3.9-1.21-1.22zm3.43 9.61l-1.87-5.22 3.55 3.54-1.68 1.68zm3.05 8.56l-2.31-6.48 2.35-2.35 2.3 2.3-2.34 6.53zm3.07-8.62l-1.62-1.62 3.42-3.41-1.8 5.03zm3.37-9.43l-1.09 1.08-3.9-3.9 3.9-3.9 2.57 2.57-1.48 4.15zm2.22-6.23l-1.9-1.9 3.9-3.9.05.05-2.05 5.75zm3.67-10.29l-1.66 1.67-3.9-3.9 3.9-3.9 2.83 2.84-1.17 3.3zm1.92-5.38l-2.17-2.16 3.9-3.9.32.32-2.05 5.74z"/></svg>