<svg width="176" height="22" viewBox="0 0 176 22" fill="none" xmlns="http://www.w3.org/2000/svg">
<line y1="9" x2="176" y2="9" stroke="#F8F7F4" stroke-opacity="0.5" stroke-width="2"/>
<path opacity="0.3" d="M23 20C20.3478 20 17.8043 18.9464 15.9289 17.0711C14.0536 15.1957 13 12.6522 13 10V12C13 14.6522 14.0536 17.1957 15.9289 19.0711C17.8043 20.9464 20.3478 22 23 22C25.6522 22 28.1957 20.9464 30.0711 19.0711C31.9464 17.1957 33 14.6522 33 12V10C33 12.6522 31.9464 15.1957 30.0711 17.0711C28.1957 18.9464 25.6522 20 23 20Z" fill="#ABABAB"/>
<path d="M23 20C28.5228 20 33 15.5228 33 10C33 4.47715 28.5228 0 23 0C17.4772 0 13 4.47715 13 10C13 15.5228 17.4772 20 23 20Z" fill="white"/>
<path d="M23 12C24.1046 12 25 11.1046 25 10C25 8.89543 24.1046 8 23 8C21.8954 8 21 8.89543 21 10C21 11.1046 21.8954 12 23 12Z" fill="#ABABAB"/>
</svg>
