<svg xmlns="http://www.w3.org/2000/svg" width="49" height="49"><g fill="#323232"><path d="M24.5 0a24.5 24.5 0 100 49 24.5 24.5 0 000-49zm0 47C12.1 47 2 36.9 2 24.5S12.1 2 24.5 2 47 12.1 47 24.5 36.9 47 24.5 47z"/><path d="M28.94 13.13a5.04 5.04 0 00-10.06 0v14.63a7.04 7.04 0 00-2 4.93 7.13 7.13 0 0014.25 0 7.13 7.13 0 00-2.2-5.13V13.13zm.18 19.56a5.13 5.13 0 01-10.25 0c0-1.65.8-3.1 2-4.04V13.13a3.03 3.03 0 116.07 0V28.5a5.11 5.11 0 012.19 4.19z"/><path d="M25 29.56V13.19a1 1 0 10-2 0v16.37a2.99 2.99 0 00-2 2.81 3 3 0 106 0 2.99 2.99 0 00-2-2.81zM31 12h6v2h-6zm0 4h6v2h-6zm0 4h6v2h-6zm0 4h6v2h-6z"/></g></svg>