<svg xmlns="http://www.w3.org/2000/svg" width="32" height="32"><path fill="#FFF" d="M16 0a16 16 0 100 32 16 16 0 000-32zm7.94 12.8c-.25 6.52-3.46 10.84-10.99 10.71h-.48c-.45 0-4.55-.44-5.35-1.82 2.48.19 4.25-.4 5.12-1.14-1.05-.29-2.92-.46-3.25-2.85.38.1.62.23 1.3.12-1.3-.83-2.76-1.52-2.68-3.65.31.32 1.16.52 1.46.46-.77-.23-2.15-3.24-.97-4.78 1.98 1.79 4.07 3.48 7.8 3.64.23-2.21 1.24-3.7 3.17-4.32 1.84-.48 3.25.26 3.9 1.14.74-.23 1.45-.47 2.2-.69-.01.83-.58 1.46-.94 1.71.75.17 1.42-.47 1.42-.47a2.92 2.92 0 01-1.7 1.95z"/></svg>