<svg xmlns="http://www.w3.org/2000/svg" width="32" height="32"><g fill="#FFF"><path d="M16.64 14.5c.4-.02.72-.09.95-.2.32-.14.54-.32.64-.55.1-.23.15-.5.15-.8 0-.23-.06-.46-.18-.7-.11-.23-.32-.4-.61-.51-.27-.1-.6-.16-.99-.17a76.24 76.24 0 00-1.65-.01h-.34v2.96h.57c.57 0 1.05 0 1.46-.02zm1.48 2.58a4.65 4.65 0 00-1.17-.13 127.97 127.97 0 00-1.55 0h-.79v3.49h.27l2.18-.01a3.2 3.2 0 001.2-.25c.38-.16.64-.36.78-.62s.22-.57.22-.9c0-.45-.1-.8-.27-1.03a1.56 1.56 0 00-.87-.55z"/><path d="M16 0a16 16 0 100 32 16 16 0 000-32zm6.6 20.53a3.73 3.73 0 01-1.12 1.33c-.55.41-1.16.7-1.82.88s-1.5.27-2.52.27h-6.12V8.99h5.44c1.13 0 1.96.03 2.48.11a5.13 5.13 0 011.56.5c.53.27.93.63 1.19 1.09.26.45.39.97.39 1.55 0 .68-.18 1.28-.54 1.8a3.5 3.5 0 01-1.51 1.2v.08c.91.18 1.64.56 2.18 1.13.53.57.8 1.33.8 2.26 0 .68-.14 1.29-.4 1.82z"/></g></svg>